<?xml version="1.0" encoding="UTF-8"?>
<svg width="84px" height="84px" viewBox="0 0 84 84" version="1.1" xmlns="http://www.w3.org/2000/svg" xmlns:xlink="http://www.w3.org/1999/xlink">
    <!-- Generator: Sketch 51.3 (57544) - http://www.bohemiancoding.com/sketch -->
    <title>Artboard 2</title>
    <desc>Created with Sketch.</desc>
    <defs></defs>
    <g id="Artboard-2" stroke="none" stroke-width="1" fill="none" fill-rule="evenodd">
        <g id="court" transform="translate(2.000000, 2.000000)">
            <circle id="Oval" stroke="#F4F5F6" fill-rule="nonzero" cx="40" cy="40" r="40"></circle>
            <path d="M18.9003906,54.67065 C18.5549316,54.67065 18.2753906,54.9498376 18.2753906,55.2941791 L18.2753906,58.4370945 L16.625,58.4370945 C16.279541,58.4370945 16,58.7162821 16,59.0606236 L16,62.3764709 C16,62.7208124 16.279541,63 16.625,63 L65.375,63 C65.720459,63 66,62.7208124 66,62.3764709 L66,59.0606236 C66,58.7162821 65.720459,58.4370945 65.375,58.4370945 L63.7648926,58.4370945 L63.7648926,55.2941791 C63.7648926,54.9498376 63.4853516,54.67065 63.1398926,54.67065 L60.6868896,54.67065 L60.6868896,34.3091371 L63.0996094,34.3091371 C63.4450684,34.3091371 63.7246094,34.0299495 63.7246094,33.685608 L63.7246094,29.4207664 C63.7246094,29.0764249 63.4450684,28.7972373 63.0996094,28.7972373 L61.3135681,28.7972373 C61.3013229,28.7858962 61.2952957,28.7705973 61.2819824,28.7600935 L41.4071045,13.1338091 C41.1800537,12.955397 40.8602295,12.955397 40.6331787,13.1338091 L20.7583007,28.7600936 C20.7449874,28.7705973 20.7389602,28.7858963 20.7267151,28.7972374 L18.8601074,28.7972374 C18.5146484,28.7972374 18.2351074,29.0764249 18.2351074,29.4207665 L18.2351074,33.685608 C18.2351074,34.0299495 18.5146484,34.3091371 18.8601074,34.3091371 L21.2728271,34.3091371 L21.2728271,54.67065 L18.9003906,54.67065 Z M64.75,61.7529418 L17.25,61.7529418 L17.25,59.6841527 L64.75,59.6841527 L64.75,61.7529418 Z M62.5148926,58.4370945 L19.5253906,58.4370945 L19.5253906,55.9177082 L62.5148926,55.9177082 L62.5148926,58.4370945 Z M37.730957,34.3091371 L37.730957,54.6706499 L27.6790771,54.6706499 L27.6790771,34.3091371 L37.730957,34.3091371 Z M44.137207,54.67065 L44.137207,34.3091371 L54.2806396,34.3091371 L54.2806396,54.67065 L44.137207,54.67065 Z M42.887207,54.67065 L38.980957,54.67065 L38.980957,34.3091371 L42.887207,34.3091371 L42.887207,54.67065 Z M59.4368896,54.67065 L55.5306396,54.67065 L55.5306396,34.3091371 L59.4368896,34.3091371 L59.4368896,54.67065 Z M41.0201416,14.4177066 L59.3091736,28.7972373 L22.7311096,28.7972373 L41.0201416,14.4177066 Z M19.4851074,30.0442955 L62.4746094,30.0442955 L62.4746094,33.0620789 L19.4851074,33.0620789 L19.4851074,30.0442955 Z M22.5228271,34.3091371 L26.4290771,34.3091371 L26.4290771,54.6706499 L22.5228271,54.6706499 L22.5228271,34.3091371 Z" id="Shape" fill="#F4F5F6" fill-rule="nonzero"></path>
            <circle id="Oval-2" fill="#F4F5F6" fill-rule="nonzero" cx="10" cy="14" r="10"></circle>
            <path d="M9.405,17.656 C9.98366956,17.656 10.4246652,17.5020015 10.728,17.194 C11.0313349,16.8859985 11.183,16.5126689 11.183,16.074 C11.183,15.5419973 11.0243349,15.1500013 10.707,14.898 C10.3896651,14.6459987 9.89033674,14.52 9.209,14.52 L8.201,14.52 L8.201,13.554 L9.895,11.244 L10.693,10.614 L9.587,10.74 L7.235,10.74 L7.235,9.2 L12.583,9.2 L12.583,10.194 L10.609,12.84 L9.993,13.218 L9.993,13.288 L10.581,13.204 C10.9076683,13.2320001 11.2179985,13.3066661 11.512,13.428 C11.8060015,13.5493339 12.0626656,13.7243322 12.282,13.953 C12.5013344,14.1816678 12.6763327,14.4639983 12.807,14.8 C12.9376673,15.1360017 13.003,15.5233311 13.003,15.962 C13.003,16.5126694 12.9120009,16.9886647 12.73,17.39 C12.5479991,17.7913353 12.2960016,18.127332 11.974,18.398 C11.6519984,18.668668 11.2763355,18.8693327 10.847,19 C10.4176645,19.1306673 9.95566914,19.196 9.461,19.196 C9.05033128,19.196 8.62566886,19.158667 8.187,19.084 C7.74833114,19.009333 7.39366802,18.9020007 7.123,18.762 L7.613,17.25 C7.85566788,17.3713339 8.12399853,17.469333 8.418,17.544 C8.71200147,17.618667 9.04099818,17.656 9.405,17.656 Z" id="3" fill="#232323"></path>
        </g>
    </g>
</svg>