<?xml version="1.0" encoding="UTF-8"?>
<svg width="84px" height="84px" viewBox="0 0 84 84" version="1.1" xmlns="http://www.w3.org/2000/svg" xmlns:xlink="http://www.w3.org/1999/xlink">
    <!-- Generator: Sketch 51.3 (57544) - http://www.bohemiancoding.com/sketch -->
    <title>Artboard 2</title>
    <desc>Created with Sketch.</desc>
    <defs></defs>
    <g id="Artboard-2" stroke="none" stroke-width="1" fill="none" fill-rule="evenodd">
        <g id="court" transform="translate(2.000000, 2.000000)">
            <circle id="Oval" stroke="#F4F5F6" fill-rule="nonzero" cx="40" cy="40" r="40"></circle>
            <circle id="Oval-2" fill="#F4F5F6" fill-rule="nonzero" cx="10" cy="14" r="10"></circle>
            <path d="M12.681,11.594 C12.681,12.0700024 12.5946675,12.5506642 12.422,13.036 C12.2493325,13.5213358 12.0300013,13.997331 11.764,14.464 C11.4979987,14.930669 11.2040016,15.3809978 10.882,15.815 C10.5599984,16.2490022 10.2450015,16.6479982 9.937,17.012 L9.195,17.586 L9.195,17.656 L10.203,17.46 L12.891,17.46 L12.891,19 L6.997,19 L6.997,18.062 C7.22100112,17.8286655 7.4729986,17.5556682 7.753,17.243 C8.0330014,16.9303318 8.31533191,16.5990017 8.6,16.249 C8.88466809,15.8989982 9.16233198,15.5373352 9.433,15.164 C9.70366802,14.7906648 9.94633226,14.4150019 10.161,14.037 C10.3756677,13.6589981 10.5459994,13.2926684 10.672,12.938 C10.7980006,12.5833316 10.861,12.2473349 10.861,11.93 C10.861,11.5473314 10.7513344,11.2323346 10.532,10.985 C10.3126656,10.7376654 9.96500238,10.614 9.489,10.614 C9.19033184,10.614 8.88466823,10.6769994 8.572,10.803 C8.25933177,10.9290006 7.99566774,11.089999 7.781,11.286 L7.053,9.998 C7.41700182,9.69933184 7.82999769,9.45900091 8.292,9.277 C8.75400231,9.09499909 9.29766354,9.004 9.923,9.004 C10.3243353,9.004 10.6929983,9.05999944 11.029,9.172 C11.3650017,9.28400056 11.6543321,9.44733226 11.897,9.662 C12.1396679,9.87666774 12.3309993,10.1449984 12.471,10.467 C12.6110007,10.7890016 12.681,11.1646645 12.681,11.594 Z" id="2" fill="#232323"></path>
            <g id="noun_security-badge_1054419" transform="translate(21.000000, 17.000000)" fill="#F4F5F6" fill-rule="nonzero">
                <path d="M29.3847416,21.7230027 L23.2813782,20.8744684 L20.5250205,15.3916312 C20.3937654,15.1958156 20.1968827,15 19.9343724,15 C19.9343724,15 19.9343724,15 19.9343724,15 C19.6718622,15 19.4749795,15.1305437 19.3437244,15.3916312 L16.6529943,20.8744684 L10.5496308,21.7882746 C10.2871206,21.8535464 10.0902379,21.9840902 10.0246103,22.2451777 C9.95898277,22.5062652 10.0246103,22.7673526 10.221493,22.8978964 L14.6185398,27.140568 L13.5684988,33.210852 C13.5028712,33.4719395 13.6341263,33.733027 13.831009,33.8635707 C13.9622642,33.9288426 14.0935193,33.9941144 14.2247744,33.9941144 C14.3560295,33.9941144 14.4216571,33.9941144 14.5529122,33.9288426 L20,31.0568802 L25.4470878,33.9288426 C25.6439705,34.0593863 25.9064807,33.9941144 26.168991,33.8635707 C26.3658737,33.733027 26.4971288,33.4719395 26.4315012,33.210852 L25.3814602,27.140568 L29.778507,22.8326245 C29.9753897,22.6368089 30.0410172,22.3757214 29.9753897,22.1799058 C29.8441345,21.9188183 29.6472518,21.7882746 29.3847416,21.7230027 Z M24.2001641,26.4225774 C24.0689089,26.5531212 24.0032814,26.8142086 24.0032814,27.0100243 L24.8564397,32.1012302 L20.2625103,29.686171 C20.0656276,29.5556272 19.8687449,29.5556272 19.6718622,29.686171 L15.0779327,32.1012302 L15.9310911,27.0100243 C15.9967186,26.8142086 15.8654635,26.5531212 15.7342084,26.4225774 L11.9934372,22.8326245 L17.1123872,22.0493621 C17.3092699,22.0493621 17.5061526,21.8535464 17.6374077,21.7230027 L19.9343724,17.0886999 L22.2313372,21.7230027 C22.2969647,21.9188183 22.4938474,22.0493621 22.7563577,22.0493621 L27.8753076,22.7673526 L24.2001641,26.4225774 Z" id="Shape"></path>
                <path d="M37.4356304,7.15768194 C37.6276682,6.90431267 37.5636556,6.52425876 37.3076052,6.33423181 L33.274811,2.91374663 C33.0827732,2.78706199 32.8267228,2.72371968 32.634685,2.78706199 C24.185021,6.27088949 19.6401261,0.506738544 19.4480882,0.253369272 C19.320063,0.126684636 19.1280252,0 18.9359874,0 C18.9359874,0 18.9359874,0 18.9359874,0 C18.7439496,0 18.5519118,0.0633423181 18.4238866,0.253369272 C18.2318487,0.506738544 13.6869537,6.27088949 5.23728983,2.78706199 C5.04525201,2.72371968 4.78920159,2.72371968 4.59716377,2.91374663 L0.564369629,6.33423181 C0.308319207,6.52425876 0.244306601,6.90431267 0.436344418,7.15768194 C0.500357023,7.22102426 4.27710075,13.1118598 2.35672258,17.6091644 C0.884432656,21.2196765 -2.63626064,29.7075472 3.44493687,37.9420485 C6.70957975,42.3760108 10.5503361,43.3894879 13.6229411,44.1495957 C15.7993697,44.7196765 17.5277101,45.1630728 18.4238866,46.6832884 C18.5519118,46.8733154 18.7439496,47 19,47 C19.2560504,47 19.4480882,46.8733154 19.5761134,46.6832884 C20.4082773,45.1630728 22.1366177,44.7196765 24.3770589,44.1495957 C27.4496639,43.3261456 31.2904202,42.3126685 34.5550631,37.9420485 C40.6362606,29.7075472 37.1155673,21.2196765 35.6432774,17.6091644 C33.594874,13.0485175 37.3716178,7.22102426 37.4356304,7.15768194 Z M33.3388236,37.1819407 C30.3302312,41.2358491 26.9375631,42.1226415 23.864958,42.9460916 C21.8165546,43.4528302 20.0242017,43.9595687 18.8719748,45.2897574 C17.7197479,43.9595687 15.9273949,43.4528302 13.8789916,42.9460916 C10.8703991,42.1226415 7.41371841,41.2358491 4.40512596,37.1819407 C-0.58785727,30.4043127 1.14048308,23.690027 3.44493687,18.0525606 C5.23728983,13.6819407 2.612773,8.48787062 1.65258392,6.90431267 L4.98123941,4.11725067 C12.5347268,7.0309973 17.3356723,3.1671159 18.8079622,1.58355795 C19.3840756,2.21698113 20.5363025,3.1671159 22.1366177,3.92722372 C24.3770589,5.00404313 27.9617648,5.89083558 32.6986976,4.05390836 L36.0273531,6.84097035 C35.1311766,8.4245283 32.4426471,13.6185984 34.2350001,17.9892183 C36.6034665,23.7533693 38.3318068,30.467655 33.3388236,37.1819407 Z" id="Shape"></path>
            </g>
        </g>
    </g>
</svg>