<?xml version="1.0" encoding="UTF-8"?>
<svg width="84px" height="84px" viewBox="0 0 84 84" version="1.1" xmlns="http://www.w3.org/2000/svg" xmlns:xlink="http://www.w3.org/1999/xlink">
    <!-- Generator: Sketch 51.3 (57544) - http://www.bohemiancoding.com/sketch -->
    <title>Artboard 2</title>
    <desc>Created with Sketch.</desc>
    <defs></defs>
    <g id="Artboard-2" stroke="none" stroke-width="1" fill="none" fill-rule="evenodd">
        <g id="reporting" transform="translate(2.000000, 2.000000)">
            <circle id="Oval" stroke="#F4F5F6" fill-rule="nonzero" cx="40" cy="40" r="40"></circle>
            <circle id="Oval-2" fill="#F4F5F6" fill-rule="nonzero" cx="11" cy="14" r="10"></circle>
            <g id="law-papers" transform="translate(22.000000, 17.000000)" fill="#F4F5F6" fill-rule="nonzero">
                <path d="M16.8942253,17.1005928 C18.8314904,14.4247846 17.7311738,11.7057873 17.2614312,10.5448764 C16.7820596,9.36018409 17.8011797,7.73922759 17.8113293,7.72310008 C17.9640932,7.4836468 17.9193311,7.16054893 17.7072312,6.97795213 L16.5072407,5.9441482 C16.356819,5.81485439 16.1517458,5.78150588 15.9726971,5.85640333 C13.6934699,6.80546923 12.4723995,5.27198429 12.4174877,5.20036699 C12.2142362,4.93221214 11.7822293,4.93330552 11.5807995,5.20310047 C11.568568,5.21922803 10.3402107,6.81940998 8.0274118,5.85640333 C7.84732215,5.78150582 7.64302967,5.81485433 7.4928682,5.9441482 L6.2928777,6.97795213 C6.08025738,7.16109559 6.03523499,7.48446688 6.18930014,7.7239201 C6.19970992,7.74004766 7.21388542,9.371118 6.7386777,10.5448764 C6.26893513,11.7060607 5.16835827,14.4250579 7.10588362,17.1005928 C8.14894628,18.5408659 9.407492,18.8776312 10.3264177,19.1233715 C10.9850983,19.2996812 11.3663575,19.4144876 11.5412422,19.7250115 C11.6372727,19.8955809 11.811637,20 12.0000545,20 C12.188472,20 12.3630965,19.8953075 12.4588667,19.7250115 C12.6334912,19.4144876 13.0147504,19.2996812 13.6736912,19.1233715 C14.5926169,18.8776312 15.8514229,18.5408659 16.8942253,17.1005928 Z M13.4105834,18.0384514 C12.9122138,18.1718455 12.4021333,18.3082464 12.0000545,18.6217771 C11.5979757,18.3082464 11.0878951,18.1718455 10.5895256,18.0384514 C9.73774313,17.8104788 8.77223354,17.5524378 7.95428292,16.4226886 C6.57732568,14.5210032 7.06294317,12.6056505 7.71980202,10.9827806 C8.23847064,9.70104957 7.67738208,8.25448943 7.31980517,7.54132331 L7.93398382,7.01212066 C9.79421637,7.66405678 11.2279071,7.0118473 12.0000545,6.33886338 C12.7727224,7.01212066 14.2056324,7.66378342 16.0661251,7.01212066 L16.6803038,7.54132331 C16.3227269,8.25448949 15.7616383,9.70104963 16.2803069,10.9827806 C16.9371658,12.6056505 17.4227833,14.5210032 16.045826,16.4226886 C15.2278754,17.5521645 14.2623658,17.8104788 13.4105834,18.0384514 Z" id="Shape"></path>
                <path d="M0.581047854,46 L35.4189521,46 C35.7398336,46 36,45.7425415 36,45.425 L36,8.44025877 C36,8.35932918 35.9824097,8.28278656 35.9519103,8.21294706 C35.9446756,8.19638212 35.9302771,8.184169 35.9215174,8.16830596 C35.8929332,8.11689147 35.8621501,8.06723177 35.8196638,8.02690737 C35.8168621,8.02424011 35.8159046,8.02030947 35.8130319,8.01771243 L27.1966143,0.152453602 C27.0890864,0.054467795 26.9486476,0 26.8025345,0 L0.581047854,0 C0.260166443,0 0,0.257458492 0,0.575 L0,45.425 C0,45.7425415 0.260166443,46 0.581047854,46 Z M27.3835824,1.88759614 L33.9321094,7.86525882 L27.3835824,7.86525882 L27.3835824,1.88759614 Z M1.16209571,1.15 L26.2214867,1.15 L26.2214867,8.44025877 C26.2214867,8.75780027 26.4816531,9.01525877 26.8025345,9.01525877 L34.8379044,9.01525877 L34.8379044,44.85 L1.16209571,44.85 L1.16209571,1.15 Z" id="Shape"></path>
                <path d="M30.3735726,12 L22.6264274,12 C22.2804853,12 22,12.2238769 22,12.5 C22,12.7761231 22.2804853,13 22.6264274,13 L30.3735726,13 C30.7195147,13 31,12.776123 31,12.5 C31,12.223877 30.7195147,12 30.3735726,12 Z" id="Shape"></path>
                <path d="M30.3735726,17 L22.6264274,17 C22.2804853,17 22,17.223877 22,17.5 C22,17.776123 22.2804853,18 22.6264274,18 L30.3735726,18 C30.7195147,18 31,17.776123 31,17.5 C31,17.223877 30.7195147,17 30.3735726,17 Z" id="Shape"></path>
                <path d="M28.4389144,24 L14.5610856,24 C14.2512283,24 14,24.223877 14,24.5 C14,24.776123 14.2512283,25 14.5610856,25 L28.4389144,25 C28.7487717,25 29,24.776123 29,24.5 C29,24.223877 28.7487717,24 28.4389144,24 Z" id="Shape"></path>
                <path d="M28.4389144,29 L14.5610856,29 C14.2512283,29 14,29.223877 14,29.5 C14,29.776123 14.2512283,30 14.5610856,30 L28.4389144,30 C28.7487717,30 29,29.776123 29,29.5 C29,29.223877 28.7487717,29 28.4389144,29 Z" id="Shape"></path>
                <path d="M12.390446,24 L7.60955405,24 C7.2729302,24 7,24.2729437 7,24.6095843 L7,29.3904157 C7,29.7270563 7.2729302,30 7.60955405,30 L12.390446,30 C12.7270698,30 13,29.7270563 13,29.3904157 L13,24.6095843 C13,24.2729437 12.7270698,24 12.390446,24 Z M11.7808919,28.7808315 L8.21910809,28.7808315 L8.21910809,25.2191686 L11.7808919,25.2191686 L11.7808919,28.7808315 Z" id="Shape"></path>
                <path d="M28.4389144,34 L14.5610856,34 C14.2512283,34 14,34.2238769 14,34.5 C14,34.7761231 14.2512283,35 14.5610856,35 L28.4389144,35 C28.7487717,35 29,34.7761231 29,34.5 C29,34.2238769 28.7487717,34 28.4389144,34 Z" id="Shape"></path>
                <path d="M28.4389144,38 L14.5610856,38 C14.2512283,38 14,38.2238769 14,38.5 C14,38.7761231 14.2512283,39 14.5610856,39 L28.4389144,39 C28.7487717,39 29,38.7761231 29,38.5 C29,38.2238769 28.7487717,38 28.4389144,38 Z" id="Shape"></path>
                <path d="M12.390446,34 L7.60955405,34 C7.2729302,34 7,34.2729302 7,34.609554 L7,39.390446 C7,39.7270698 7.2729302,40 7.60955405,40 L12.390446,40 C12.7270698,40 13,39.7270698 13,39.390446 L13,34.609554 C13,34.2729302 12.7270698,34 12.390446,34 Z M11.7808919,38.7808919 L8.21910809,38.7808919 L8.21910809,35.2191081 L11.7808919,35.2191081 L11.7808919,38.7808919 Z" id="Shape"></path>
            </g>
            <polygon id="1" fill="#232323" points="8.445 17.46 10.391 17.46 10.391 11.93 10.601 10.978 9.929 11.804 8.683 12.658 7.913 11.608 11.105 9.032 12.127 9.032 12.127 17.46 14.031 17.46 14.031 19 8.445 19"></polygon>
        </g>
    </g>
</svg>